<mxfile host="app.diagrams.net" agent="Mozilla/5.0 (Windows NT 10.0; Win64; x64) AppleWebKit/537.36 (KHTML, like Gecko) Chrome/141.0.0.0 Safari/537.36" version="28.2.8">
  <diagram name="Page-1" id="07xpOBI_z9Oza2nO8TJI">
    <mxGraphModel dx="946" dy="563" grid="1" gridSize="10" guides="1" tooltips="1" connect="1" arrows="1" fold="1" page="1" pageScale="1" pageWidth="850" pageHeight="1100" math="0" shadow="0">
      <root>
        <mxCell id="0" />
        <mxCell id="1" parent="0" />
        <mxCell id="S8xJPB7IV-TnqVLzKTNA-4" style="edgeStyle=orthogonalEdgeStyle;rounded=0;orthogonalLoop=1;jettySize=auto;html=1;entryX=0;entryY=0.5;entryDx=0;entryDy=0;" parent="1" source="S8xJPB7IV-TnqVLzKTNA-1" target="S8xJPB7IV-TnqVLzKTNA-2" edge="1">
          <mxGeometry relative="1" as="geometry" />
        </mxCell>
        <mxCell id="S8xJPB7IV-TnqVLzKTNA-5" style="edgeStyle=orthogonalEdgeStyle;rounded=0;orthogonalLoop=1;jettySize=auto;html=1;entryX=0;entryY=0.5;entryDx=0;entryDy=0;" parent="1" source="S8xJPB7IV-TnqVLzKTNA-1" target="S8xJPB7IV-TnqVLzKTNA-3" edge="1">
          <mxGeometry relative="1" as="geometry" />
        </mxCell>
        <mxCell id="S8xJPB7IV-TnqVLzKTNA-1" value="&lt;b&gt;Ansible&lt;/b&gt;" style="rounded=0;whiteSpace=wrap;html=1;" parent="1" vertex="1">
          <mxGeometry x="120" y="80" width="120" height="60" as="geometry" />
        </mxCell>
        <mxCell id="S8xJPB7IV-TnqVLzKTNA-2" value="&lt;b&gt;NODE-1&lt;/b&gt;" style="rounded=0;whiteSpace=wrap;html=1;" parent="1" vertex="1">
          <mxGeometry x="330" y="30" width="120" height="60" as="geometry" />
        </mxCell>
        <mxCell id="S8xJPB7IV-TnqVLzKTNA-3" value="&lt;b&gt;NODE-2&lt;/b&gt;" style="rounded=0;whiteSpace=wrap;html=1;" parent="1" vertex="1">
          <mxGeometry x="330" y="150" width="120" height="60" as="geometry" />
        </mxCell>
        <mxCell id="CfX6yc1OOwzWi-LeAaxm-1" value="&lt;b&gt;Push&lt;/b&gt;" style="text;html=1;whiteSpace=wrap;strokeColor=none;fillColor=none;align=center;verticalAlign=middle;rounded=0;" vertex="1" parent="1">
          <mxGeometry x="210" y="45" width="60" height="30" as="geometry" />
        </mxCell>
        <mxCell id="CfX6yc1OOwzWi-LeAaxm-2" value="&lt;b&gt;NODE-1&lt;/b&gt;&lt;div&gt;&lt;b&gt;Ansible&lt;/b&gt;&lt;/div&gt;" style="rounded=0;whiteSpace=wrap;html=1;" vertex="1" parent="1">
          <mxGeometry x="330" y="340" width="120" height="60" as="geometry" />
        </mxCell>
        <mxCell id="CfX6yc1OOwzWi-LeAaxm-4" style="edgeStyle=orthogonalEdgeStyle;rounded=0;orthogonalLoop=1;jettySize=auto;html=1;entryX=0.5;entryY=0;entryDx=0;entryDy=0;" edge="1" parent="1" source="CfX6yc1OOwzWi-LeAaxm-3" target="CfX6yc1OOwzWi-LeAaxm-2">
          <mxGeometry relative="1" as="geometry" />
        </mxCell>
        <mxCell id="CfX6yc1OOwzWi-LeAaxm-3" value="" style="verticalLabelPosition=bottom;html=1;verticalAlign=top;align=center;strokeColor=none;fillColor=#00BEF2;shape=mxgraph.azure.github_code;pointerEvents=1;" vertex="1" parent="1">
          <mxGeometry x="365" y="220" width="50" height="50" as="geometry" />
        </mxCell>
        <mxCell id="CfX6yc1OOwzWi-LeAaxm-8" style="edgeStyle=orthogonalEdgeStyle;rounded=0;orthogonalLoop=1;jettySize=auto;html=1;" edge="1" parent="1" source="CfX6yc1OOwzWi-LeAaxm-5" target="CfX6yc1OOwzWi-LeAaxm-7">
          <mxGeometry relative="1" as="geometry" />
        </mxCell>
        <mxCell id="CfX6yc1OOwzWi-LeAaxm-5" value="&lt;b&gt;MySQL&lt;/b&gt;&lt;div&gt;&lt;b&gt;Ansible&lt;/b&gt;&lt;/div&gt;" style="rounded=0;whiteSpace=wrap;html=1;" vertex="1" parent="1">
          <mxGeometry x="190" y="580" width="140" height="80" as="geometry" />
        </mxCell>
        <mxCell id="CfX6yc1OOwzWi-LeAaxm-6" value="" style="sketch=0;points=[[0,0,0],[0.25,0,0],[0.5,0,0],[0.75,0,0],[1,0,0],[0,1,0],[0.25,1,0],[0.5,1,0],[0.75,1,0],[1,1,0],[0,0.25,0],[0,0.5,0],[0,0.75,0],[1,0.25,0],[1,0.5,0],[1,0.75,0]];outlineConnect=0;fontColor=#232F3E;fillColor=#ED7100;strokeColor=#ffffff;dashed=0;verticalLabelPosition=bottom;verticalAlign=top;align=center;html=1;fontSize=12;fontStyle=0;aspect=fixed;shape=mxgraph.aws4.resourceIcon;resIcon=mxgraph.aws4.ec2;" vertex="1" parent="1">
          <mxGeometry x="300" y="580" width="30" height="30" as="geometry" />
        </mxCell>
        <mxCell id="CfX6yc1OOwzWi-LeAaxm-7" value="" style="outlineConnect=0;dashed=0;verticalLabelPosition=bottom;verticalAlign=top;align=center;html=1;shape=mxgraph.aws3.parameter_store;fillColor=#759C3E;gradientColor=none;" vertex="1" parent="1">
          <mxGeometry x="410" y="450" width="75" height="102" as="geometry" />
        </mxCell>
        <mxCell id="CfX6yc1OOwzWi-LeAaxm-9" value="&lt;b&gt;aws configure&lt;/b&gt;" style="text;html=1;whiteSpace=wrap;strokeColor=none;fillColor=none;align=center;verticalAlign=middle;rounded=0;" vertex="1" parent="1">
          <mxGeometry x="400" y="570" width="120" height="30" as="geometry" />
        </mxCell>
      </root>
    </mxGraphModel>
  </diagram>
</mxfile>
